<?xml version="1.0" encoding="UTF-8"?>
<svg id="_图层_1" data-name="图层 1" xmlns="http://www.w3.org/2000/svg" viewBox="0 0 223.41 300">
  <defs>
    <style>
      .cls-1 {
        fill: #0618f4;
      }
    </style>
  </defs>
  <path d="M214.95,234.33c-5.66,12.98-13.49,24.33-23.51,34.11-10.02,9.75-21.82,17.46-35.44,23.1-13.6,5.64-28.49,8.46-44.67,8.46s-30.69-2.76-44.31-8.28c-13.6-5.52-25.36-13.1-35.23-22.73-9.89-9.62-17.66-20.94-23.31-33.89-5.66-12.98-8.48-26.9-8.48-41.82v-.75c0-14.89,2.82-28.84,8.48-41.79,5.64-12.98,13.48-24.33,23.49-34.11,10.02-9.75,21.82-17.46,35.44-23.1,13.6-5.64,28.51-8.46,44.69-8.46s30.67,2.76,44.29,8.28c13.6,5.52,25.36,13.07,35.25,22.73,9.87,9.62,17.65,20.91,23.31,33.89,5.64,12.98,8.46,26.9,8.46,41.79v.78c0,14.89-2.82,28.84-8.46,41.79ZM165.64,192.54c0-7.71-1.29-14.95-3.86-21.75-2.57-6.8-6.3-12.85-11.18-18.12-4.87-5.27-10.66-9.44-17.34-12.51-6.68-3.1-14-4.64-21.94-4.64-8.48,0-15.99,1.47-22.54,4.45-6.55,2.95-12.13,6.99-16.76,12.13-4.62,5.14-8.15,11.1-10.6,17.9s-3.65,14.07-3.65,21.75v.78c0,7.71,1.27,14.95,3.84,21.75,2.57,6.8,6.3,12.85,11.18,18.12,4.87,5.27,10.6,9.44,17.15,12.51,6.54,3.07,13.92,4.61,22.15,4.61s15.99-1.47,22.54-4.42c6.54-2.95,12.13-6.99,16.76-12.13,4.61-5.14,8.13-11.1,10.58-17.9s3.67-14.07,3.67-21.79v-.75Z"/>
  <path class="cls-1" d="M139.13,39.64c-1.5,3.45-3.58,6.46-6.25,9.06-2.66,2.59-5.8,4.64-9.41,6.14-3.61,1.5-7.57,2.25-11.87,2.25s-8.15-.73-11.77-2.2c-3.61-1.47-6.74-3.48-9.36-6.04-2.63-2.56-4.69-5.56-6.19-9-1.5-3.45-2.25-7.14-2.25-11.11v-.2c0-3.96.75-7.66,2.25-11.1,1.5-3.45,3.58-6.46,6.24-9.06,2.66-2.59,5.8-4.64,9.41-6.14,3.61-1.5,7.57-2.25,11.87-2.25s8.15.73,11.77,2.2c3.61,1.47,6.74,3.47,9.36,6.04,2.62,2.56,4.69,5.55,6.19,9,1.5,3.45,2.25,7.14,2.25,11.1v.21c0,3.96-.75,7.66-2.25,11.1Z"/>
  <g>
    <path class="cls-1" d="M66.94,60.78c-1.5,3.45-3.58,6.46-6.25,9.06-2.66,2.59-5.8,4.64-9.41,6.14-3.61,1.5-7.57,2.25-11.87,2.25s-8.15-.73-11.77-2.2c-3.61-1.47-6.74-3.48-9.36-6.04-2.63-2.56-4.69-5.56-6.19-9-1.5-3.45-2.25-7.14-2.25-11.11v-.2c0-3.96.75-7.66,2.25-11.1,1.5-3.45,3.58-6.46,6.24-9.06,2.66-2.59,5.8-4.64,9.41-6.14,3.61-1.5,7.57-2.25,11.87-2.25s8.15.73,11.77,2.2c3.61,1.47,6.74,3.47,9.36,6.04,2.62,2.56,4.69,5.55,6.19,9,1.5,3.45,2.25,7.14,2.25,11.1v.21c0,3.96-.75,7.66-2.25,11.1Z"/>
    <path class="cls-1" d="M211.32,60.78c-1.5,3.45-3.58,6.46-6.25,9.06-2.66,2.59-5.8,4.64-9.41,6.14-3.61,1.5-7.57,2.25-11.87,2.25s-8.15-.73-11.77-2.2c-3.61-1.47-6.74-3.48-9.36-6.04-2.63-2.56-4.69-5.56-6.19-9-1.5-3.45-2.25-7.14-2.25-11.11v-.2c0-3.96.75-7.66,2.25-11.1,1.5-3.45,3.58-6.46,6.24-9.06,2.66-2.59,5.8-4.64,9.41-6.14,3.61-1.5,7.57-2.25,11.87-2.25s8.15.73,11.77,2.2c3.61,1.47,6.74,3.47,9.36,6.04,2.62,2.56,4.69,5.55,6.19,9,1.5,3.45,2.25,7.14,2.25,11.1v.21c0,3.96-.75,7.66-2.25,11.1Z"/>
  </g>
</svg>